<svg width="32px" height="32px" viewBox="0 0 32 32" fill="none" xmlns="http://www.w3.org/2000/svg" transform="rotate(180)"><g id="SVGRepo_bgCarrier" stroke-width="0"></g><g id="SVGRepo_tracerCarrier" stroke-linecap="round" stroke-linejoin="round" stroke="#CCCCCC" stroke-width="0.672"></g><g id="SVGRepo_iconCarrier"> <path d="M11.6149 10.1283C11.3256 10.4248 11.3315 10.8997 11.628 11.1889C11.9245 11.4782 12.3993 11.4723 12.6886 11.1758L11.6149 10.1283ZM12.3237 10.5051L12.7575 11.1169L12.7591 11.1158L12.3237 10.5051ZM16.8437 7.28307L17.2791 7.89379C17.2875 7.88781 17.2957 7.88166 17.3039 7.87534L16.8437 7.28307ZM18.17 7.0965L17.8911 7.79272L17.8911 7.79273L18.17 7.0965ZM19.0007 8.14707H19.7507C19.7507 8.10997 19.748 8.07292 19.7425 8.03623L19.0007 8.14707ZM19.0007 14.8931L19.7425 15.0039C19.748 14.9672 19.7507 14.9302 19.7507 14.8931H19.0007ZM18.17 15.9436L17.8911 15.2474L18.17 15.9436ZM16.8437 15.7571L16.3827 16.3486L16.3836 16.3493L16.8437 15.7571ZM12.3227 12.2331L12.7838 11.6415C12.7749 11.6346 12.7658 11.6278 12.7565 11.6212L12.3227 12.2331ZM12.6875 11.5623C12.3983 11.2658 11.9234 11.26 11.627 11.5493C11.3305 11.8385 11.3247 12.3134 11.6139 12.6099L12.6875 11.5623ZM11.4007 10.6521C11.4007 11.0663 11.7365 11.4021 12.1507 11.4021C12.5649 11.4021 12.9007 11.0663 12.9007 10.6521H11.4007ZM12.1507 8.14707H12.9007C12.9007 8.10997 12.898 8.07292 12.8925 8.03623L12.1507 8.14707ZM11.32 7.0965L11.0411 7.79272L11.0411 7.79273L11.32 7.0965ZM9.99373 7.28307L10.429 7.89384C10.4374 7.88784 10.4457 7.88167 10.4539 7.87534L9.99373 7.28307ZM5.47273 10.5051L5.87722 11.1366C5.88765 11.13 5.89792 11.123 5.90801 11.1158L5.47273 10.5051ZM5.47273 12.2331L5.93375 11.6415C5.91553 11.6273 5.89667 11.6139 5.87722 11.6015L5.47273 12.2331ZM9.99473 15.7571L9.53372 16.3486L9.5346 16.3493L9.99473 15.7571ZM11.321 15.9436L11.5999 16.6399L11.321 15.9436ZM12.1517 14.8931L12.8935 15.0039C12.899 14.9672 12.9017 14.9302 12.9017 14.8931H12.1517ZM12.9017 12.0861C12.9017 11.6719 12.5659 11.3361 12.1517 11.3361C11.7375 11.3361 11.4017 11.6719 11.4017 12.0861H12.9017ZM12.9017 10.6521C12.9017 10.2379 12.5659 9.90207 12.1517 9.90207C11.7375 9.90207 11.4017 10.2379 11.4017 10.6521H12.9017ZM11.4017 12.0861C11.4017 12.5003 11.7375 12.8361 12.1517 12.8361C12.5659 12.8361 12.9017 12.5003 12.9017 12.0861H11.4017ZM12.6886 11.1758C12.7097 11.1541 12.7328 11.1344 12.7574 11.1169L11.89 9.8932C11.7914 9.9631 11.6993 10.0418 11.6149 10.1283L12.6886 11.1758ZM12.7591 11.1158L17.2791 7.89379L16.4084 6.67235L11.8884 9.89435L12.7591 11.1158ZM17.3039 7.87534C17.4711 7.74545 17.6946 7.714 17.8911 7.79272L18.4489 6.40028C17.7577 6.12343 16.9716 6.23402 16.3836 6.6908L17.3039 7.87534ZM17.8911 7.79273C18.0877 7.87145 18.2277 8.04852 18.259 8.25791L19.7425 8.03623C19.6325 7.29986 19.14 6.67713 18.4489 6.40028L17.8911 7.79273ZM18.2507 8.14707V14.8931H19.7507V8.14707H18.2507ZM18.259 14.7822C18.2277 14.9916 18.0877 15.1687 17.8911 15.2474L18.4489 16.6399C19.14 16.363 19.6325 15.7403 19.7425 15.0039L18.259 14.7822ZM17.8911 15.2474C17.6946 15.3261 17.4711 15.2947 17.3039 15.1648L16.3836 16.3493C16.9716 16.8061 17.7577 16.9167 18.4489 16.6399L17.8911 15.2474ZM17.3048 15.1655L12.7838 11.6415L11.8617 12.8246L16.3827 16.3486L17.3048 15.1655ZM12.7565 11.6212C12.7318 11.6037 12.7087 11.584 12.6875 11.5623L11.6139 12.6099C11.6983 12.6963 11.7904 12.775 11.889 12.8449L12.7565 11.6212ZM12.9007 10.6521V8.14707H11.4007V10.6521H12.9007ZM12.8925 8.03623C12.7825 7.29986 12.29 6.67713 11.5989 6.40028L11.0411 7.79273C11.2377 7.87145 11.3777 8.04852 11.409 8.25791L12.8925 8.03623ZM11.5989 6.40028C10.9077 6.12343 10.1216 6.23402 9.5336 6.6908L10.4539 7.87534C10.6211 7.74545 10.8446 7.714 11.0411 7.79272L11.5989 6.40028ZM9.55846 6.6723L5.03746 9.8943L5.90801 11.1158L10.429 7.89384L9.55846 6.6723ZM5.06825 9.87349C4.55844 10.2 4.25007 10.7637 4.25007 11.3691H5.75007C5.75007 11.275 5.79799 11.1874 5.87722 11.1366L5.06825 9.87349ZM4.25007 11.3691C4.25007 11.9745 4.55844 12.5382 5.06825 12.8646L5.87722 11.6015C5.79799 11.5508 5.75007 11.4632 5.75007 11.3691H4.25007ZM5.01171 12.8246L9.53372 16.3486L10.4557 15.1655L5.93375 11.6415L5.01171 12.8246ZM9.5346 16.3493C10.1226 16.8061 10.9087 16.9167 11.5999 16.6399L11.0421 15.2474C10.8456 15.3261 10.6221 15.2947 10.4549 15.1648L9.5346 16.3493ZM11.5999 16.6399C12.291 16.363 12.7835 15.7403 12.8935 15.0039L11.41 14.7822C11.3787 14.9916 11.2387 15.1687 11.0421 15.2474L11.5999 16.6399ZM12.9017 14.8931V12.0861H11.4017V14.8931H12.9017ZM11.4017 10.6521V12.0861H12.9017V10.6521H11.4017Z" fill="#000000"></path> </g></svg>